<svg xmlns="http://www.w3.org/2000/svg" width="40" height="40" viewBox="0 0 40 40" fill="none">
  <rect width="40" height="40" rx="8" fill="#141414"/>
  <line x1="20" y1="20" x2="20" y2="8" stroke="#C9A84C" stroke-width="1.3" stroke-opacity="0.85"/>
  <line x1="20" y1="20" x2="31" y2="14" stroke="#C9A84C" stroke-width="1.3" stroke-opacity="0.85"/>
  <line x1="20" y1="20" x2="31" y2="27" stroke="#C9A84C" stroke-width="1.3" stroke-opacity="0.85"/>
  <line x1="20" y1="20" x2="20" y2="33" stroke="#C9A84C" stroke-width="1.3" stroke-opacity="0.85"/>
  <line x1="20" y1="20" x2="9" y2="27" stroke="#C9A84C" stroke-width="1.3" stroke-opacity="0.85"/>
  <line x1="20" y1="20" x2="9" y2="14" stroke="#C9A84C" stroke-width="1.3" stroke-opacity="0.85"/>
  <line x1="20" y1="8" x2="31" y2="14" stroke="#9a9890" stroke-width="0.8" stroke-opacity="0.4"/>
  <line x1="31" y1="14" x2="31" y2="27" stroke="#9a9890" stroke-width="0.8" stroke-opacity="0.4"/>
  <line x1="31" y1="27" x2="20" y2="33" stroke="#9a9890" stroke-width="0.8" stroke-opacity="0.4"/>
  <line x1="20" y1="33" x2="9" y2="27" stroke="#9a9890" stroke-width="0.8" stroke-opacity="0.4"/>
  <line x1="9" y1="27" x2="9" y2="14" stroke="#9a9890" stroke-width="0.8" stroke-opacity="0.4"/>
  <line x1="9" y1="14" x2="20" y2="8" stroke="#9a9890" stroke-width="0.8" stroke-opacity="0.4"/>
  <circle cx="20" cy="8" r="2.2" fill="#1e1e1e" stroke="#C9A84C" stroke-width="1.4"/>
  <circle cx="31" cy="14" r="2.2" fill="#1e1e1e" stroke="#9a9890" stroke-width="1.4"/>
  <circle cx="31" cy="27" r="2.2" fill="#1e1e1e" stroke="#C9A84C" stroke-width="1.4"/>
  <circle cx="20" cy="33" r="2.2" fill="#1e1e1e" stroke="#9a9890" stroke-width="1.4"/>
  <circle cx="9" cy="27" r="2.2" fill="#1e1e1e" stroke="#C9A84C" stroke-width="1.4"/>
  <circle cx="9" cy="14" r="2.2" fill="#1e1e1e" stroke="#9a9890" stroke-width="1.4"/>
  <circle cx="20" cy="20" r="3.2" fill="#C9A84C"/>
</svg>
